<?xml version="1.0" encoding="iso-8859-1"?>
<!-- Uploaded to: SVG Repo, www.svgrepo.com, Generator: SVG Repo Mixer Tools https://www.svgrepo.com/svg/190516/cake-->
<svg version="1.1" id="Layer_1" xmlns="http://www.w3.org/2000/svg" xmlns:xlink="http://www.w3.org/1999/xlink" 
	 viewBox="0 0 512 512" xml:space="preserve">
<path style="fill:#A66300;" d="M364.123,18.258H147.878c-30.357,0-55.055,24.698-55.055,55.056v182.685
	c0,9.276,7.52,16.796,16.796,16.796h292.762c9.276,0,16.796-7.52,16.796-16.796V73.314
	C419.177,42.956,394.479,18.258,364.123,18.258z"/>
<g>
	<path style="fill:#834E00;" d="M364.123,18.258H257.163v254.537h145.218c9.276,0,16.796-7.52,16.796-16.796V73.314
		C419.177,42.956,394.479,18.258,364.123,18.258z"/>
	<path style="fill:#834E00;" d="M419.514,239.204H92.487c-30.357,0-55.055,24.698-55.055,55.056v182.686
		c0,9.276,7.52,16.796,16.796,16.796h403.546c9.276,0,16.796-7.52,16.796-16.796V294.26
		C474.57,263.901,449.872,239.204,419.514,239.204z"/>
</g>
<rect x="37.432" y="404.074" style="fill:#613901;" width="437.14" height="33.592"/>
<path style="fill:#EE8FBD;" d="M419.177,107.325V73.491c-15.257-1.169-30.917,4.052-42.56,15.694
	c-3.906,3.906-9.099,6.057-14.624,6.057c-5.524,0-10.716-2.151-14.622-6.057c-21.158-21.161-55.59-21.161-76.749,0
	c-8.062,8.062-21.183,8.063-29.245,0.001c-10.25-10.25-23.879-15.896-38.375-15.896c-14.497,0-28.125,5.646-38.375,15.894
	c-8.062,8.063-21.182,8.063-29.245,0c-11.642-11.642-27.302-16.864-42.56-15.694v33.836c6.586-1.352,13.708,0.513,18.807,5.611
	c21.159,21.161,55.59,21.159,76.75,0.001c3.906-3.906,9.098-6.057,14.622-6.057c5.524,0,10.716,2.151,14.622,6.058
	c21.159,21.158,55.591,21.158,76.75-0.002c3.906-3.904,9.099-6.055,14.622-6.055c5.524,0,10.716,2.151,14.622,6.055
	c21.161,21.159,55.591,21.161,76.75,0.001C405.47,107.839,412.591,105.975,419.177,107.325z"/>
<rect x="92.825" y="180.074" style="fill:#613901;" width="326.354" height="33.592"/>
<rect x="256.002" y="180.074" style="fill:#543101;" width="163.177" height="33.592"/>
<path style="fill:#613901;" d="M419.514,239.204H257.163v254.538h200.61c9.276,0,16.796-7.52,16.796-16.796V294.26
	C474.57,263.901,449.872,239.204,419.514,239.204z"/>
<path style="fill:#E78600;" d="M495.204,493.742H16.796C7.52,493.742,0,486.222,0,476.946s7.52-16.796,16.796-16.796h478.408
	c9.276,0,16.796,7.52,16.796,16.796S504.481,493.742,495.204,493.742z"/>
<g>
	<path style="fill:#EE72AE;" d="M376.618,89.185c-3.906,3.906-9.099,6.057-14.624,6.057c-5.524,0-10.716-2.151-14.622-6.057
		c-21.158-21.161-55.59-21.161-76.749,0c-3.735,3.735-8.558,5.717-13.46,5.992v33.604c13.507-0.287,26.928-5.558,37.213-15.843
		c3.906-3.904,9.099-6.055,14.622-6.055c5.524,0,10.716,2.151,14.622,6.055c21.161,21.159,55.591,21.161,76.75,0.001
		c5.099-5.099,12.221-6.964,18.807-5.613V73.491C403.92,72.322,388.261,77.543,376.618,89.185z"/>
	<path style="fill:#EE72AE;" d="M474.57,352.425v-34.268c-2.095,0.701-4.305,1.085-6.579,1.085c-5.524,0-10.716-2.151-14.622-6.057
		c-10.25-10.25-23.879-15.896-38.374-15.896c-14.496,0-28.125,5.646-38.375,15.896c-3.906,3.906-9.099,6.057-14.624,6.057
		c-5.524,0-10.716-2.151-14.621-6.057c-10.25-10.25-23.879-15.896-38.375-15.896c-14.496,0-28.125,5.646-38.374,15.896
		c-8.064,8.063-21.183,8.063-29.246,0c-21.159-21.162-55.59-21.158-76.749,0c-3.906,3.906-9.099,6.057-14.622,6.057
		s-10.717-2.151-14.622-6.057c-21.159-21.158-55.59-21.158-76.75,0c-3.906,3.906-9.098,6.057-14.622,6.057
		c-2.273,0-4.483-0.384-6.578-1.085v34.268c2.168,0.261,4.361,0.409,6.578,0.409c14.497,0,28.125-5.646,38.375-15.894
		c8.062-8.063,21.182-8.062,29.245-0.001c21.159,21.161,55.59,21.161,76.75,0c8.062-8.061,21.182-8.061,29.245,0
		c21.159,21.162,55.592,21.159,76.751,0c3.904-3.906,9.098-6.057,14.621-6.057c5.524,0,10.716,2.151,14.622,6.057
		c21.159,21.161,55.592,21.161,76.75,0c3.906-3.906,9.099-6.057,14.624-6.057c5.524,0,10.716,2.151,14.621,6.057
		c10.25,10.25,23.879,15.896,38.375,15.896C470.207,352.834,472.401,352.686,474.57,352.425z"/>
</g>
<path style="fill:#EE5DA3;" d="M467.99,319.242c-5.524,0-10.716-2.151-14.622-6.057c-10.25-10.25-23.879-15.896-38.374-15.896
	c-14.496,0-28.125,5.646-38.375,15.896c-3.906,3.906-9.099,6.057-14.624,6.057c-5.524,0-10.716-2.151-14.621-6.057
	c-10.25-10.25-23.879-15.896-38.375-15.896c-14.496,0-28.125,5.646-38.374,15.896c-4.032,4.032-9.328,6.048-14.624,6.048v33.576
	c13.898,0,27.797-5.291,38.377-15.871c3.904-3.906,9.098-6.057,14.621-6.057c5.524,0,10.716,2.151,14.622,6.057
	c21.159,21.161,55.592,21.161,76.75,0c3.906-3.906,9.099-6.057,14.624-6.057c5.524,0,10.716,2.151,14.621,6.057
	c10.25,10.25,23.879,15.896,38.375,15.896c2.217,0,4.412-0.148,6.579-0.409v-34.268C472.475,318.858,470.263,319.242,467.99,319.242
	z"/>
<rect x="256.439" y="404.074" style="fill:#543101;" width="218.133" height="33.592"/>
<path style="fill:#D17900;" d="M495.204,460.15H257.163v33.592h238.041c9.276,0,16.796-7.52,16.796-16.796
	S504.481,460.15,495.204,460.15z"/>
</svg>